PathFileType	4	(X/Y/Z)	 s10c0302.trc
DataRate	CameraRate	NumFrames	NumMarkers	Units	OrigDataRate	OrigDataStartFrame	OrigNumFrames
200	200	4	50	mm	200	751	2000
Frame#	Time	racr			lacr			c7			jug			rlel			rdr			llel			ldr			s2			lic			ric			lasi			rasi			rpsi			lpsi			rgt			lgt			rth1			rth2			rth3			rth4			rlfc			rmfc			rsh1			rsh2			rsh3			rsh4			rlmal			rmmal			rcal			rtoe			rmt5			lth1			lth2			lth4			lth3			llfc			lmfc			llmal			lmmal			lcal			lmt5			lsh1			lsh2			lsh3			lsh4			ltoe			SBIKE			LBIKE			RBIKE			
		X1	Y1	Z1	X2	Y2	Z2	X3	Y3	Z3	X4	Y4	Z4	X5	Y5	Z5	X6	Y6	Z6	X7	Y7	Z7	X8	Y8	Z8	X9	Y9	Z9	X10	Y10	Z10	X11	Y11	Z11	X12	Y12	Z12	X13	Y13	Z13	X14	Y14	Z14	X15	Y15	Z15	X16	Y16	Z16	X17	Y17	Z17	X18	Y18	Z18	X19	Y19	Z19	X20	Y20	Z20	X21	Y21	Z21	X22	Y22	Z22	X23	Y23	Z23	X24	Y24	Z24	X25	Y25	Z25	X26	Y26	Z26	X27	Y27	Z27	X28	Y28	Z28	X29	Y29	Z29	X30	Y30	Z30	X31	Y31	Z31	X32	Y32	Z32	X33	Y33	Z33	X34	Y34	Z34	X35	Y35	Z35	X36	Y36	Z36	X37	Y37	Z37	X38	Y38	Z38	X39	Y39	Z39	X40	Y40	Z40	X41	Y41	Z41	X42	Y42	Z42	X43	Y43	Z43	X44	Y44	Z44	X45	Y45	Z45	X46	Y46	Z46	X47	Y47	Z47	X48	Y48	Z48	X49	Y49	Z49	X50	Y50	Z50	
751	3.7550	602.085310	1299.947953	15.334506	622.103758	1253.700896	-316.175793	585.112474	1334.798503	-155.871283	573.551332	1190.265485	-133.216177	520.611531	1041.570700	95.012708	641.997002	881.513160	-7.349675	521.708820	1024.205286	-456.571038	663.490220	884.965787	-372.936471	71.277870	1143.244648	-273.719210	276.902699	1133.441570	-372.336630	200.531916	1165.070696	-86.518493	280.569453	1049.746390	-328.132623	200.059716	1085.914693	-90.994608	102.199833	1204.207008	-220.243799	141.736466	1199.545383	-317.645224	89.955028	1073.292735	-56.748346	156.958048	1009.123588	-426.610438	191.765615	989.853128	-6.302996	279.696275	976.486661	1.827614	343.710725	924.044508	20.298632	294.396619	1009.297550	-8.215147	441.702219	872.129475	23.770255	461.649718	849.836123	-97.886089	348.309884	802.337752	33.855887	303.692859	729.975490	8.661996	229.169342	690.945751	-11.346474	328.963109	711.325022	-12.696100	152.456083	616.071962	-44.965891	192.698973	622.580639	-119.102200	102.336336	625.717223	-96.364615	290.099901	471.383958	-86.849370	205.808707	497.330946	-28.551904	174.975934	892.610059	-437.535998	203.549233	813.641427	-416.710080	237.469681	818.881072	-402.954428	187.303842	726.770509	-404.707418	199.189629	623.313535	-378.988624	174.848829	618.006482	-265.163304	82.389270	265.971976	-389.128432	96.155741	283.086220	-297.760593	25.656142	258.402379	-350.013620	167.211585	141.668177	-392.624551	139.577922	518.223239	-418.682691	145.608713	432.641732	-404.535252	107.090165	351.928285	-404.473542	172.622109	430.159023	-377.632991	248.734868	137.934243	-326.237145	-204.429866	832.780276	-224.739969	-78.249475	81.775738	-423.629382	-102.692797	80.546291	-24.458176	
752	3.7600	605.438541	1296.678735	16.408303	621.121789	1256.789755	-314.936081	586.195509	1335.008305	-153.526621	574.059463	1190.398084	-132.692242	519.615430	1039.822880	96.984183	641.848571	881.721282	-7.103924	521.856349	1025.872512	-454.423717	663.878040	884.991503	-372.789989	71.984286	1147.775118	-273.564462	277.015712	1137.288184	-371.184502	200.004194	1167.539090	-85.080358	280.209634	1053.304868	-327.565899	198.720633	1088.767906	-90.576216	102.621328	1208.227508	-219.681248	142.301615	1203.754942	-316.791332	88.446485	1076.838431	-56.878690	156.672005	1013.166679	-426.638487	190.110022	992.542385	-7.173448	278.059431	979.179002	0.583388	342.139089	926.828784	18.828343	292.609795	1012.313519	-8.957601	441.016694	875.967848	21.922034	460.391125	854.121458	-100.108490	348.851313	804.457455	31.905664	305.251229	731.011047	7.703674	231.285210	690.770605	-11.907813	331.052495	712.379759	-13.479336	155.640993	613.335789	-44.819430	195.187629	621.096552	-118.796653	104.708704	620.821398	-95.801514	297.818529	473.497727	-86.404691	212.538944	496.380768	-27.934367	173.912779	896.446178	-437.728045	201.966607	817.236224	-417.209270	236.079764	822.216818	-403.709171	185.095509	730.496647	-404.966773	195.804058	627.001336	-379.986096	171.771249	621.863677	-264.993216	78.197430	269.827367	-390.133562	90.992322	285.909053	-298.550489	21.549543	263.604334	-350.321385	159.779466	143.132071	-392.950053	135.545910	522.084530	-419.171091	141.575524	436.607717	-405.536537	102.979235	355.952003	-405.373605	168.954429	433.973629	-379.050601	241.110924	136.868053	-326.578626	-204.492438	832.784345	-224.639329	-78.250331	81.809208	-423.641950	-102.705128	80.567344	-24.464049	
753	3.7650	608.532860	1293.258613	17.505481	620.354041	1259.755485	-313.732363	587.281882	1335.043139	-150.512487	574.579214	1190.640099	-132.179385	518.547430	1037.861150	99.045613	641.659194	882.013228	-6.846966	521.940931	1027.583216	-452.262252	664.389781	885.375608	-372.966557	71.430686	1152.169767	-272.585595	277.040942	1141.401634	-369.854321	199.555320	1170.109784	-83.532138	279.660643	1057.082399	-326.996977	197.478148	1091.747144	-90.026172	103.046555	1212.341882	-218.715790	142.639169	1208.066315	-315.559752	87.040064	1080.692600	-56.932337	156.305371	1017.307273	-426.641774	188.403463	995.086478	-7.939398	276.341751	981.626259	-0.504128	340.415090	929.060749	17.255542	290.764483	1014.939491	-9.566224	439.832568	879.106475	19.754060	460.040119	856.637449	-102.864556	349.060615	805.680712	29.729137	306.581750	731.339723	6.749360	233.086935	689.315533	-12.102186	332.647868	712.917978	-14.305664	158.672150	609.965780	-44.644373	198.605157	619.038338	-118.475678	106.784056	615.435953	-95.473085	305.321185	475.337643	-86.011027	219.327255	495.000407	-27.457384	172.924764	900.371111	-437.635260	200.867885	820.722011	-417.433292	234.989347	825.718830	-404.240960	183.358493	734.275866	-404.957301	193.251152	630.732534	-380.681340	170.381354	626.087998	-264.643618	73.731175	273.862212	-391.012449	85.911780	288.992790	-299.319960	17.186835	268.799462	-350.490252	152.244163	145.107719	-393.322043	132.199073	526.072952	-419.335733	137.973802	440.731101	-406.225209	99.103965	360.240076	-406.011029	165.663664	437.775781	-380.063935	233.429075	136.481433	-326.981625	-204.499619	832.808875	-224.596651	-78.255410	81.828522	-423.664002	-102.714482	80.588933	-24.472851	
754	3.7700	611.348304	1289.631623	18.555215	619.741112	1262.381750	-312.548421	588.373728	1335.121099	-148.168620	575.031884	1190.935026	-131.793994	517.711824	1035.952216	100.958301	641.411068	882.122425	-6.670323	521.936439	1029.200664	-450.129166	664.780962	885.661389	-372.902075	71.420570	1157.148796	-273.074472	276.831272	1145.438332	-368.691305	199.258148	1172.768821	-82.006827	278.865475	1060.907888	-326.318401	196.332849	1094.693906	-89.349048	103.476751	1216.519254	-217.388025	142.968342	1212.652792	-314.142309	85.792048	1084.797148	-56.994975	155.864625	1021.475058	-426.592953	186.616178	997.404276	-8.629395	274.568112	983.676589	-1.486203	338.492069	930.735455	15.729095	289.077975	1016.996344	-10.220236	438.798055	880.927829	17.606089	458.934511	858.583180	-105.433472	348.949054	806.284993	27.325097	307.592972	730.783336	5.651515	234.974050	687.715207	-12.527229	333.920091	712.397498	-15.266816	161.577347	605.942021	-44.288918	200.003227	616.014352	-118.224992	108.797556	609.231064	-94.920411	312.581680	476.919804	-85.540782	225.890062	493.114360	-26.792290	172.213175	904.185320	-437.344430	199.947256	824.383064	-417.395119	234.202919	829.174476	-404.436849	182.129264	738.065005	-404.665126	191.730270	634.430975	-380.916126	170.076675	629.876624	-264.226445	68.761211	277.926550	-391.628283	80.925754	292.331923	-300.066192	12.393764	273.853870	-350.517639	144.737560	147.401760	-393.653690	129.548881	530.530285	-419.682836	134.838382	445.036185	-406.632597	95.437960	364.729943	-406.412217	162.796271	441.696375	-380.726019	225.669954	136.781555	-327.339873	-204.505157	832.832199	-224.535612	-78.251309	81.874556	-423.677416	-102.719747	80.594788	-24.464244	
